<?xml version="1.0" encoding="utf-8"?>
<!-- Generator: Adobe Illustrator 26.1.0, SVG Export Plug-In . SVG Version: 6.00 Build 0)  -->
<svg version="1.2" baseProfile="tiny" id="Layer_1" xmlns="http://www.w3.org/2000/svg" xmlns:xlink="http://www.w3.org/1999/xlink"
	 x="0px" y="0px" viewBox="0 0 255 255" overflow="visible" xml:space="preserve">
<g>
	<g>
		<path fill="#FFFFFF" d="M149.8,254c-54.1,0-98-44-98-98c0-54.1,44-98.1,98-98.1s98,44,98,98.1C247.8,210,203.9,254,149.8,254z
			 M149.8,66.8c-49.1,0-89.1,40-89.1,89.1c0,49.1,40,89.1,89.1,89.1s89.1-40,89.1-89.1C238.9,106.8,198.9,66.8,149.8,66.8z"/>
	</g>
	<path fill="#FFFFFF" d="M142.1,161c-0.1,0-0.2,0-0.3,0c-0.7,0.1-1.5,0.1-2.3,0.1c-2.9,0-6-0.6-8-1c1.4-2,4.3-5.6,7.2-7.6
		c1-0.7,1.3-1.9,0.9-2.9c-0.1-0.2-0.2-0.4-0.3-0.5c-0.5-0.7-1.3-1.1-2.1-1.1c-0.5,0-1,0.1-1.4,0.4c-2.4,1.6-4.6,4.1-6.4,6.2
		l-61,22.8l-6.3,2.4l-2.6,1l-33.3,12.5l-8.5,3.2l-1.4-3.3l-9.2,3.8l2.1,4.9c-2,2.5-2.1,6.3,0,9c1.2,1.6,3,2.5,4.9,2.8l1.7,4.2
		l9.2-3.8l-1.7-4.2l12.4-5.5l1.8,4.4l9.2-3.8l-1.8-4.4l18.9-7.5l2.5-1l6.5-2.6l59.8-23.8c2,0.4,4.5,0.7,6.9,0.7c1,0,2-0.1,3-0.2
		c1.3-0.2,2.3-1.5,2.1-2.8C144.4,161.9,143.3,161,142.1,161z"/>
	<g>
		<path fill="#FFFFFF" d="M187.6,156.1c0,0,0,0.6,0.1,1.7c0.1,1.1,0.1,2.7-0.1,4.8c-0.3,2.1-0.7,4.6-1.8,7.4c-1,2.8-2.6,5.8-5,8.7
			c-2.3,2.9-5.4,5.7-9.2,7.9c-3.8,2.2-8.2,3.8-13,4.2c-1.2,0.1-2.3,0.3-3.7,0.2c-1.2-0.1-2.1,0-3.5-0.2c-2.6-0.3-5.1-0.8-7.5-1.7
			c-4.8-1.7-9.3-4.5-13-8.1c-3.6-3.7-6.4-8.2-8.1-13c-1.7-4.8-2.1-10-1.7-14.6c1-9.8,6.2-17.7,12.1-22.3c2.9-2.3,5.9-4,8.7-5
			c2.8-1.1,5.3-1.5,7.4-1.8c2.1-0.2,3.7-0.2,4.8-0.1c1.1,0.1,1.7,0.1,1.7,0.1s-0.6,0.1-1.7,0.3c-1.1,0.1-2.6,0.6-4.6,1.1
			c-1.9,0.7-4.2,1.5-6.5,2.9c-2.4,1.3-4.8,3.2-7.1,5.6c-2.3,2.4-4.3,5.3-5.9,8.6c-1.6,3.3-2.5,7.2-2.7,11c-0.2,4.1,0.5,8.1,1.9,12
			c1.4,3.8,3.7,7.4,6.7,10.4c2.9,3,6.5,5.3,10.4,6.7c1.9,0.7,4,1.2,5.8,1.6c0.8,0.2,2.1,0.2,3.2,0.3c0.8,0.1,1.9,0,2.9,0
			c3.9-0.2,7.8-1.1,11.1-2.7c3.3-1.6,6.3-3.6,8.6-5.9c2.3-2.3,4.3-4.7,5.6-7.1c1.4-2.4,2.2-4.6,2.9-6.5c0.5-1.9,0.9-3.5,1.1-4.6
			C187.5,156.7,187.6,156.1,187.6,156.1z"/>
		<path fill="#FFFFFF" d="M183.2,142.2c0,7.9-6.4,14.4-14.4,14.4c-7.9,0-14.4-6.4-14.4-14.4c0-8,6.4-14.4,14.4-14.4
			C176.8,127.8,183.2,134.2,183.2,142.2z"/>
		<path fill="#FFFFFF" d="M158.5,152.1c0,3.8-3.1,6.9-6.9,6.9c-3.8,0-7-3.1-7-6.9c0-3.8,3.1-7,7-7
			C155.4,145.1,158.5,148.3,158.5,152.1z"/>
		<path fill="#FFFFFF" d="M194.6,194.9c0,0-0.7,0.8-2.1,2.2c-1.3,1.5-3.5,3.4-6.6,5.7c-1.6,1-3.2,2.3-5.3,3.3c-1,0.5-2,1.1-3.1,1.7
			c-1.1,0.5-2.3,1-3.5,1.5c-4.9,1.9-10.8,3.5-17.4,3.7c-6.4,0.3-13.8-0.5-21-3c-7.2-2.5-14.3-6.6-20.4-12.4
			c-6.1-5.7-11.1-13.1-14.1-21.4c-3.1-8.2-4.3-17.6-3.4-26.2c1.1-9.3,4.2-17.7,9-25.2c4.7-7.5,11.3-13.5,18.5-17.8
			c7.2-4.4,15-6.8,22.6-7.7c1.9-0.3,3.8-0.3,5.6-0.4c1,0,1.7-0.1,2.9,0c0.9,0.1,1.7,0.2,2.6,0.2c1.7,0.2,3.3,0.2,5,0.6
			c1.7,0.4,3.4,0.8,5,1.1c1.7,0.3,3.1,1,4.6,1.5c1.5,0.6,2.9,1,4.3,1.7c2.6,1.5,5.2,2.6,7.3,4.2c2.2,1.5,4.2,2.9,5.8,4.5
			c1.7,1.6,3.3,2.9,4.4,4.4c1.2,1.4,2.3,2.7,3.2,3.8c0.8,1.2,1.4,2.3,2,3.1c1.1,1.7,1.6,2.6,1.6,2.6s-0.7-0.8-1.9-2.3
			c-0.6-0.8-1.4-1.7-2.3-2.8c-1-1-2.2-2.1-3.5-3.4c-1.2-1.4-2.9-2.5-4.7-3.8c-1.7-1.4-3.8-2.5-5.9-3.8c-2.1-1.4-4.7-2.2-7.2-3.3
			c-1.3-0.6-2.7-0.8-4.1-1.3c-1.4-0.4-2.8-1-4.3-1.1c-1.5-0.2-3-0.5-4.5-0.7c-1.5-0.3-3.3-0.2-5-0.3c-0.9,0-1.7-0.1-2.6-0.1
			c-0.5,0-1.6,0.1-2.4,0.2c-1.7,0.1-3.4,0.2-5.1,0.6c-6.8,1.1-13.7,3.7-20,7.7c-6.3,4-11.9,9.6-16,16.2c-4.2,6.5-6.9,14.4-7.7,21.9
			c-1,8.2,0.1,16,2.7,23.4c2.7,7.3,6.7,14,12.1,19.3c5.3,5.3,11.5,9.3,17.9,11.9c6.4,2.6,12.8,3.8,19.1,3.9
			c6.1,0.2,11.7-0.9,16.6-2.2c1.2-0.4,2.4-0.7,3.5-1.1c1.1-0.5,2.1-0.9,3.1-1.3c2.1-0.8,3.8-1.9,5.4-2.7c3.1-1.9,5.5-3.5,7-4.8
			C193.8,195.6,194.6,194.9,194.6,194.9z"/>
	</g>
	<path fill="#FFFFFF" d="M136.2,70.2l-1.3-3.9l-0.9-2.6l-15.6-46.9l-2.3-7.1l2.8-1L116.1,1L112,2.5c-1.1-0.9-2.5-1.4-3.9-1.4
		c-1.2,0-2.4,0.4-3.5,1.1c-1.3,1-2.2,2.4-2.4,3.9l-3.5,1.3l2.9,7.7l3.5-1.3l4.1,10.4l-3.6,1.4l2.9,7.7l3.7-1.3l12.1,34l0.9,2.6
		l1.4,3.9l1.6,4.6c3.2-0.8,6.4-1.4,9.8-1.8L136.2,70.2z"/>
</g>
</svg>
