<svg xmlns="http://www.w3.org/2000/svg" xmlns:xlink="http://www.w3.org/1999/xlink" viewBox="0 0 479.35 111.46"><defs><style>.cls-1{isolation:isolate;}.cls-2{fill:#00adee;}.cls-3{fill:url(#radial-gradient);}.cls-4{fill:url(#linear-gradient);}.cls-5{fill:#bcbcbc;}.cls-6{mix-blend-mode:multiply;fill:url(#radial-gradient-2);}.cls-7{fill:#fefefe;}.cls-8{fill:#00bff2;}.cls-9{fill:url(#radial-gradient-4);}.cls-10{fill:#fff;}.cls-11{mix-blend-mode:hard-light;opacity:0.33;fill:url(#radial-gradient-5);}.cls-12{fill:#0091c7;}.cls-13{mix-blend-mode:lighten;opacity:0.3;fill:url(#radial-gradient-6);}.cls-14{fill:url(#linear-gradient-2);}</style><radialGradient id="radial-gradient" cx="35.43" cy="-76.85" r="0.91" gradientTransform="matrix(77.59, 0, 0, -77.59, -2685.75, -5920.37)" gradientUnits="userSpaceOnUse"><stop offset="0" stop-color="#00c0f2"/><stop offset="0.03" stop-color="#00c0f2"/><stop offset="0.25" stop-color="#00c0f2"/><stop offset="0.6" stop-color="#00ade5"/><stop offset="0.94" stop-color="#002640"/><stop offset="1" stop-color="#000f24"/></radialGradient><linearGradient id="linear-gradient" x1="40.18" y1="-82.46" x2="41.08" y2="-82.46" gradientTransform="matrix(-156.81, -80.56, -80.56, 156.81, -233.44, 16260.67)" gradientUnits="userSpaceOnUse"><stop offset="0" stop-color="#e4e4e4"/><stop offset="0.22" stop-color="#727272"/><stop offset="0.24" stop-color="#6a6a6a"/><stop offset="0.4" stop-color="#e4e4e4"/><stop offset="0.57" stop-color="#727272"/><stop offset="0.58" stop-color="#6a6a6a"/><stop offset="1" stop-color="#e4e4e4"/></linearGradient><radialGradient id="radial-gradient-2" cx="33.91" cy="-74.36" r="0.91" gradientTransform="matrix(49.79, 0, 0, -49.79, -1629.82, -3649.41)" gradientUnits="userSpaceOnUse"><stop offset="0" stop-color="#00adee"/><stop offset="0.15" stop-color="#0790c4"/><stop offset="0.37" stop-color="#11688a"/><stop offset="0.57" stop-color="#19485c"/><stop offset="0.75" stop-color="#1e323b"/><stop offset="0.9" stop-color="#222427"/><stop offset="1" stop-color="#231f20"/></radialGradient><radialGradient id="radial-gradient-4" cx="38.89" cy="77.71" r="12.81" gradientUnits="userSpaceOnUse"><stop offset="0.25" stop-color="#003d58"/><stop offset="0.35" stop-color="#00425f"/><stop offset="0.48" stop-color="#005173"/><stop offset="0.65" stop-color="#006a94"/><stop offset="0.84" stop-color="#008cc1"/><stop offset="1" stop-color="#00adee"/></radialGradient><radialGradient id="radial-gradient-5" cx="33.4" cy="-73.53" r="0.91" gradientTransform="matrix(44.6, 0, 0, -44.68, -1425.01, -3215.98)" gradientUnits="userSpaceOnUse"><stop offset="0" stop-color="#00ace3"/><stop offset="0.12" stop-color="#00ace3"/><stop offset="0.61" stop-color="#00749d"/><stop offset="1" stop-color="#00b8ee"/></radialGradient><radialGradient id="radial-gradient-6" cx="57.69" cy="48.61" r="75.38" gradientUnits="userSpaceOnUse"><stop offset="0" stop-color="#4092cf"/><stop offset="0.15" stop-color="#3374a5"/><stop offset="0.37" stop-color="#214b6a"/><stop offset="0.57" stop-color="#132b3d"/><stop offset="0.75" stop-color="#08131b"/><stop offset="0.9" stop-color="#020507"/><stop offset="1"/></radialGradient><linearGradient id="linear-gradient-2" x1="292.41" y1="95.1" x2="320.55" y2="95.1" gradientUnits="userSpaceOnUse"><stop offset="0" stop-color="#00adee"/><stop offset="1" stop-color="#fff"/></linearGradient></defs><g class="cls-1"><g id="Layer_2" data-name="Layer 2"><g id="Layer_2-2" data-name="Layer 2"><path class="cls-2" d="M149.33,41.47a27.17,27.17,0,0,1,16.55,5.63,1.81,1.81,0,0,1,.3,2.57,1.71,1.71,0,0,1-2.49.36,23.42,23.42,0,0,0-14.36-5,22.73,22.73,0,0,0-23.06,22.56c0,12.23,10.25,22.26,23.06,22.26a21.82,21.82,0,0,0,14.21-5,1.78,1.78,0,0,1,2.56.44,1.72,1.72,0,0,1-.22,2.56,27.06,27.06,0,0,1-16.55,5.57c-14.72,0-26.65-11.57-26.65-25.85C122.68,53,134.61,41.54,149.33,41.47Z"/><path class="cls-2" d="M176.13,86.14a3.66,3.66,0,1,1-3.66,3.66A3.62,3.62,0,0,1,176.13,86.14Z"/><path class="cls-2" d="M183.6,44a1.78,1.78,0,0,1,1.76-1.76h26.36A1.73,1.73,0,0,1,213.48,44a1.75,1.75,0,0,1-1.76,1.83H187.19V66.07h21.45a1.8,1.8,0,0,1,0,3.59H187.19V89.87h24.53a1.8,1.8,0,0,1,0,3.59H185.21a1.76,1.76,0,0,1-1.61-1.76Z"/><path class="cls-2" d="M221.75,86.14a3.66,3.66,0,1,1-3.66,3.66A3.62,3.62,0,0,1,221.75,86.14Z"/><path class="cls-2" d="M229.73,44a1.78,1.78,0,0,1,1.76-1.76A1.8,1.8,0,0,1,233.32,44V91.7a1.8,1.8,0,0,1-1.83,1.76,1.78,1.78,0,0,1-1.76-1.76Z"/><path class="cls-2" d="M246.28,86.14a3.66,3.66,0,1,1-3.66,3.66A3.62,3.62,0,0,1,246.28,86.14Z"/><path class="cls-2" d="M301.86,99.68A18.83,18.83,0,0,1,290.29,104h-.08c-4.68,0-8.86-1.9-12.74-4.17a12,12,0,0,0-6.15-1.61,14,14,0,0,0-6.81,1.61h-.07a1.88,1.88,0,0,1-2.05-.15h-.08a2.39,2.39,0,0,1-.51-.8,1.82,1.82,0,0,1,.81-2.42l6.81-3.07C257.26,91.7,248,80.64,248,67.54c0-14.28,10.92-26,24.61-26.07s24.6,11.79,24.6,26.07a26.23,26.23,0,0,1-15.08,24L274.76,95a14.67,14.67,0,0,1,4.47,1.61c3.73,2.27,7.4,3.81,11,3.81,2.86,0,5.86-1,9.31-3.67a1.85,1.85,0,0,1,2.56.3A2,2,0,0,1,301.86,99.68Zm-29.22-9.74c11.42,0,20.94-10,20.94-22.4S284.06,45.2,272.64,45.2,251.7,55,251.7,67.54,261.22,89.94,272.64,89.94Z"/><path class="cls-3" d="M103.15,68.3A39.17,39.17,0,1,1,64,29.13,39.18,39.18,0,0,1,103.15,68.3"/><path class="cls-4" d="M52.86,30.28a40.78,40.78,0,0,0-28.2,49.93l2.84-1.06A38.28,38.28,0,0,1,53.48,32l-.62-1.76M64,28.75a40.78,40.78,0,0,0-6.68.54L57.88,31A38.23,38.23,0,1,1,29.44,84.47l-2.89,1.15a40.75,40.75,0,0,0,78.17-16.13h0A40.73,40.73,0,0,0,64,28.75"/><path class="cls-5" d="M105.33,69.49h-.61A40.73,40.73,0,1,1,92.79,40.68a40.62,40.62,0,0,1,11.93,28.81h1.22a42,42,0,1,0-42,42,42,42,0,0,0,42-42h-.61"/><path class="cls-6" d="M64.28,30.49a38.56,38.56,0,0,0-6.4.53L61,40.29q-2,.66-4.05,1.38L53.48,32a38.28,38.28,0,0,0-26,47.11L54.85,68.9a15,15,0,0,1,2.86-2.76,1.16,1.16,0,0,1,.63-.19,1.14,1.14,0,0,1,.94.49,1,1,0,0,1,.11.23A1.09,1.09,0,0,1,59,68a15.29,15.29,0,0,0-3.22,3.41,17.64,17.64,0,0,0,3.57.45,7,7,0,0,0,1-.07h.15a1.12,1.12,0,0,1,1.11,1,1.11,1.11,0,0,1-1,1.25,9.44,9.44,0,0,1-1.32.09,19.29,19.29,0,0,1-3.1-.3L29.44,84.47a38.23,38.23,0,1,0,34.84-54"/><path class="cls-6" d="M64.28,30.49a38.56,38.56,0,0,0-6.4.53L61,40.29q-2,.66-4.05,1.38L53.48,32a38.28,38.28,0,0,0-26,47.11L54.85,68.9a15,15,0,0,1,2.86-2.76,1.16,1.16,0,0,1,.63-.19,1.14,1.14,0,0,1,.94.49,1,1,0,0,1,.11.23A1.09,1.09,0,0,1,59,68a15.29,15.29,0,0,0-3.22,3.41,17.64,17.64,0,0,0,3.57.45,7,7,0,0,0,1-.07h.15a1.12,1.12,0,0,1,1.11,1,1.11,1.11,0,0,1-1,1.25,9.44,9.44,0,0,1-1.32.09,19.29,19.29,0,0,1-3.1-.3L29.44,84.47a38.23,38.23,0,1,0,34.84-54"/><path class="cls-2" d="M23.51,80.64,8.59,86.23,4.76,87.65l-.62-1.5L0,87.85l.92,2.21a3.25,3.25,0,0,0,0,4A3.3,3.3,0,0,0,3.1,95.33l.78,1.87L8,95.48l-.77-1.86,5.57-2.45.82,2,4.13-1.72-.81-2,8.46-3.37a41.5,41.5,0,0,1-1.9-5.43"/><path class="cls-7" d="M27.5,79.15l-2.84,1.06a39.77,39.77,0,0,0,1.89,5.41l2.89-1.15a38.78,38.78,0,0,1-1.94-5.32"/><path class="cls-8" d="M27.5,79.15l-2.84,1.06a39.77,39.77,0,0,0,1.89,5.41l2.89-1.15a38.78,38.78,0,0,1-1.94-5.32"/><path class="cls-7" d="M24.66,80.21l-1.15.43a41.5,41.5,0,0,0,1.9,5.43l1.14-.45a39.77,39.77,0,0,1-1.89-5.41"/><path class="cls-8" d="M24.66,80.21l-1.15.43a41.5,41.5,0,0,0,1.9,5.43l1.14-.45a39.77,39.77,0,0,1-1.89-5.41"/><path class="cls-9" d="M58.34,66a1.16,1.16,0,0,0-.63.19,15,15,0,0,0-2.86,2.76L27.5,79.15a38.78,38.78,0,0,0,1.94,5.32L56.26,73.8a19.29,19.29,0,0,0,3.1.3A9.44,9.44,0,0,0,60.68,74a1.11,1.11,0,0,0,1-1.25,1.12,1.12,0,0,0-1.11-1h-.15a7,7,0,0,1-1,.07,17.64,17.64,0,0,1-3.57-.45A15.29,15.29,0,0,1,59,68a1.09,1.09,0,0,0,.41-1.32,1,1,0,0,0-.11-.23,1.14,1.14,0,0,0-.94-.49"/><path class="cls-2" d="M48.85,0,47,.69A2.63,2.63,0,0,0,45.27.05a2.66,2.66,0,0,0-1.57.5,2.77,2.77,0,0,0-1.09,1.76l-1.56.59,1.29,3.44,1.55-.57,1.84,4.65-1.64.6,1.29,3.45,1.65-.6,5.42,15.26a39,39,0,0,1,4.46-1l-7-21L48.87,3.92l1.25-.47L48.85,0"/><path class="cls-7" d="M57.3,29.29a40.79,40.79,0,0,0-4.44,1L53.48,32a40.17,40.17,0,0,1,4.4-1l-.58-1.73"/><path class="cls-8" d="M57.3,29.29a40.79,40.79,0,0,0-4.44,1L53.48,32a40.17,40.17,0,0,1,4.4-1l-.58-1.73"/><path class="cls-7" d="M56.91,28.12a39,39,0,0,0-4.46,1l.41,1.15a40.79,40.79,0,0,1,4.44-1l-.39-1.17"/><path class="cls-8" d="M56.91,28.12a39,39,0,0,0-4.46,1l.41,1.15a40.79,40.79,0,0,1,4.44-1l-.39-1.17"/><path class="cls-10" d="M80.92,69.58s0,.27,0,.76a12.4,12.4,0,0,1,0,2.17,13.74,13.74,0,0,1-.81,3.33,13.12,13.12,0,0,1-2.24,3.91,14.22,14.22,0,0,1-4.12,3.53,14.72,14.72,0,0,1-5.85,1.89c-.56,0-1,.11-1.67.08a14.69,14.69,0,0,1-1.56-.08,13.69,13.69,0,0,1-3.36-.75,15.13,15.13,0,0,1-9.49-9.49,15.05,15.05,0,0,1-.76-6.55,14.7,14.7,0,0,1,5.42-10,13.38,13.38,0,0,1,3.92-2.24,13.63,13.63,0,0,1,3.33-.81,13.48,13.48,0,0,1,2.17,0l.76,0-.75.13a18,18,0,0,0-2.06.47,16,16,0,0,0-2.94,1.29,14.2,14.2,0,0,0-5.85,6.36,13.89,13.89,0,0,0-1.2,4.94,13.51,13.51,0,0,0,.85,5.37,13.09,13.09,0,0,0,7.64,7.64,14.48,14.48,0,0,0,2.59.7,11.61,11.61,0,0,0,1.44.15c.37.05.87,0,1.3,0a13.85,13.85,0,0,0,5-1.2A14.15,14.15,0,0,0,79,75.32a17.1,17.1,0,0,0,1.29-2.93,19.25,19.25,0,0,0,.47-2.06Z"/><path class="cls-10" d="M79,63.32a6.45,6.45,0,1,1-6.44-6.45A6.44,6.44,0,0,1,79,63.32Z"/><path class="cls-10" d="M67.88,67.77a3.12,3.12,0,1,1-3.12-3.12A3.12,3.12,0,0,1,67.88,67.77Z"/><path class="cls-11" d="M102.37,71.39C93.15,80,79.28,85.51,63.77,85.51c-14.9,0-28.28-5.06-37.48-13.11a38.16,38.16,0,0,0,76.08-1"/><path class="cls-10" d="M84.06,87l-1,1a20.06,20.06,0,0,1-2.94,2.53A21.32,21.32,0,0,1,77.82,92l-1.41.75-1.58.67a23.79,23.79,0,0,1-7.78,1.67,25.1,25.1,0,0,1-9.41-1.36A25.34,25.34,0,0,1,42.16,78.54a25.54,25.54,0,0,1,2.53-23.05A25.52,25.52,0,0,1,63.11,44.08a16.57,16.57,0,0,1,2.52-.16,10.92,10.92,0,0,1,1.29,0l1.15.1c.77.1,1.5.11,2.27.28l2.25.51a13.44,13.44,0,0,1,2.06.68,16.16,16.16,0,0,1,1.91.76,25.69,25.69,0,0,1,3.26,1.91,18.78,18.78,0,0,1,2.6,2,19.37,19.37,0,0,1,2,2c.54.64,1,1.21,1.43,1.72l.88,1.4.73,1.15-.87-1c-.28-.35-.63-.76-1-1.26L84,52.58a15.86,15.86,0,0,0-2.09-1.72,18.18,18.18,0,0,0-2.66-1.7A24.94,24.94,0,0,0,76,47.65c-.58-.25-1.22-.37-1.84-.57a11.64,11.64,0,0,0-1.93-.5l-2-.32a20,20,0,0,0-2.23-.12l-1.16,0c-.25,0-.71,0-1.06.07a16.25,16.25,0,0,0-2.28.26,24,24,0,0,0-9,3.47A23.47,23.47,0,0,0,43.83,67,23,23,0,0,0,45,77.48a23.37,23.37,0,0,0,5.41,8.66,24.07,24.07,0,0,0,8,5.34A24.86,24.86,0,0,0,67,93.25a25.38,25.38,0,0,0,7.43-1L76,91.78l1.4-.59A22.66,22.66,0,0,0,79.84,90,27.26,27.26,0,0,0,83,87.83Z"/><path class="cls-12" d="M58.63,33.3,57.88,31a40.17,40.17,0,0,0-4.4,1l.74,2.07A38.23,38.23,0,0,1,58.63,33.3Z"/><path class="cls-13" d="M63.79,66c14.53,0,26.31-7.36,26.32-16.47S78.34,33,63.82,33,37.51,40.34,37.51,49.45,49.27,65.94,63.79,66Z"/><path class="cls-10" d="M345.08,82.61A9.6,9.6,0,0,1,341,91q-4.14,2.91-11.73,2.91-8.12,0-12.88-2.49v-4a28.47,28.47,0,0,0,12.88,3q6,0,9.1-2a6,6,0,0,0,3.11-5.3A6.45,6.45,0,0,0,339,78,27.54,27.54,0,0,0,330.82,74a46.37,46.37,0,0,1-8.53-3.77,11.83,11.83,0,0,1-3.7-3.56,9,9,0,0,1-1.25-4.85,8.28,8.28,0,0,1,3.82-7.18Q325,52,331.83,52a31.86,31.86,0,0,1,12.43,2.45l-1.37,3.34a29.35,29.35,0,0,0-11.06-2.45A16.19,16.19,0,0,0,324,56.93a5,5,0,0,0-2.9,4.54,6.27,6.27,0,0,0,2.25,5q2.25,1.91,8.8,4.24a43.25,43.25,0,0,1,8,3.55,11.66,11.66,0,0,1,3.75,3.58A8.79,8.79,0,0,1,345.08,82.61Z"/><path class="cls-10" d="M383.73,93.13V66.93c0-4.06-.85-7-2.57-8.86s-4.37-2.77-8-2.77q-7.27,0-10.64,3.66t-3.37,11.87v22.3h-3.68V35.31h3.68V53.7L359,58.87h.26A13.52,13.52,0,0,1,365,53.59,20.12,20.12,0,0,1,373.6,52q13.78,0,13.78,14.75V93.13Z"/><path class="cls-10" d="M434,72.88q0,9.89-4.8,15.44T415.9,93.87a17.18,17.18,0,0,1-9.38-2.56A16.38,16.38,0,0,1,400.3,84a26.7,26.7,0,0,1-2.16-11.07q0-9.88,4.81-15.41T416.13,52q8.34,0,13.09,5.59T434,72.88Zm-31.94,0q0,8.33,3.66,13t10.37,4.66q6.7,0,10.37-4.66t3.67-13q0-8.37-3.7-13T416,55.3q-6.71,0-10.33,4.59T402,72.88Z"/><path class="cls-10" d="M462.48,93.87q-9.35,0-13.62-7h-.26l.11,3.12q.15,2.74.15,6v15.38h-3.69V52.74h3.13L449,58.5h.22Q453.4,52,462.56,52q8.19,0,12.49,5.37T479.35,73q0,10-4.52,15.44T462.48,93.87Zm-.07-3.27A11.27,11.27,0,0,0,472,86c2.27-3.08,3.4-7.37,3.4-12.9q0-17.8-12.88-17.8-7.08,0-10.39,3.88t-3.31,12.66V73q0,9.47,3.18,13.52T462.41,90.6Z"/><path class="cls-14" d="M293.14,103.45l-.73-3.07a21.8,21.8,0,0,0,7.32-3.46,27.24,27.24,0,0,0,4.78-5.06l.5-.63a11.8,11.8,0,0,1,4.66-3.94,8.92,8.92,0,0,1,6.1,0,21.81,21.81,0,0,1,4.78,2.47l-2.78,2.46a11.64,11.64,0,0,0-3.14-1.49,5.39,5.39,0,0,0-3.62-.09,8.7,8.7,0,0,0-3.17,2.85l-.5.62a30,30,0,0,1-5.45,5.71C299.33,101.73,296.17,102.66,293.14,103.45Z"/></g></g></g></svg>